<?xml version="1.0" standalone="no"?>
<!DOCTYPE svg PUBLIC "-//W3C//DTD SVG 20010904//EN"
 "http://www.w3.org/TR/2001/REC-SVG-20010904/DTD/svg10.dtd">
<svg version="1.0" xmlns="http://www.w3.org/2000/svg"
 width="120.000000pt" height="120.000000pt" viewBox="0 0 120.000000 120.000000"
 preserveAspectRatio="xMidYMid meet">
<metadata>
Created by potrace 1.11, written by Peter Selinger 2001-2013
</metadata>
<g transform="translate(0.000000,120.000000) scale(0.100000,-0.100000)"
fill="#000000" stroke="none">
<path d="M1 600 l1 -599 291 -1 c186 0 295 4 303 11 8 7 14 7 19 -1 8 -13 62
-13 67 1 3 8 14 8 43 0 23 -6 126 -11 245 -11 l205 0 2 45 c1 24 7 53 13 64 6
13 10 189 10 515 0 439 -2 496 -15 496 -22 0 -28 22 -16 53 l11 27 -78 -1
c-42 -1 -63 -4 -47 -6 17 -3 35 -9 42 -14 17 -14 28 -108 14 -122 -8 -8 -11 0
-11 30 l0 40 -56 -13 c-48 -11 -83 -34 -84 -55 0 -3 -11 -4 -25 -1 -19 3 -27
-1 -34 -19 -9 -23 -10 -23 -10 -2 -1 12 4 23 11 25 6 2 8 10 4 16 -9 14 -56
16 -56 2 0 -5 5 -10 11 -10 8 0 8 -5 -1 -15 -7 -8 -20 -15 -29 -15 -15 0 13
-29 83 -84 13 -11 22 -25 20 -31 -3 -6 19 -40 47 -77 63 -83 73 -118 48 -184
-11 -27 -19 -59 -19 -71 0 -12 -5 -35 -12 -50 -16 -35 -86 -133 -96 -133 -19
0 -3 -108 24 -160 21 -40 30 -73 32 -122 l4 -67 -41 -11 c-52 -14 -117 -5
-195 26 -33 13 -64 24 -69 24 -17 0 -107 72 -107 86 0 32 77 30 223 -7 43 -11
82 -17 87 -14 11 7 13 68 4 103 -4 12 -13 22 -21 22 -11 0 -11 -4 -2 -22 10
-18 9 -20 -6 -14 -43 16 -65 16 -116 -2 -29 -11 -76 -20 -103 -21 -27 -1 -67
-8 -89 -16 -39 -13 -41 -13 -81 19 -59 48 -71 53 -57 28 15 -28 88 -86 129
-102 18 -7 41 -24 52 -37 10 -13 35 -37 54 -52 l35 -28 -21 -19 c-19 -16 -21
-17 -15 -2 5 15 -4 16 -102 13 l-107 -4 -65 67 c-69 71 -83 94 -68 109 6 6 4
38 -6 89 -11 50 -14 97 -10 131 5 44 3 55 -15 73 -11 11 -26 18 -32 14 -14 -9
-4 -121 17 -170 14 -35 33 -175 19 -146 -3 6 -15 12 -26 12 -16 0 -18 -3 -9
-14 9 -11 9 -16 0 -21 -7 -5 -21 5 -36 24 -14 17 -29 29 -34 26 -12 -8 -12
-55 1 -55 6 0 10 -11 10 -25 0 -14 -4 -25 -10 -25 -5 0 -10 4 -10 9 0 5 -10
11 -22 14 -20 6 -21 10 -15 94 8 99 37 292 66 433 11 52 16 96 11 98 -4 2 -4
17 2 35 22 71 26 99 17 134 -5 23 -4 42 1 47 17 17 11 26 -15 26 -31 0 -44
-24 -38 -74 l5 -41 -20 24 c-13 16 -30 24 -50 24 -28 0 -30 4 -47 66 -10 36
-20 92 -22 124 l-5 57 126 0 c115 0 125 -1 120 -17 -5 -17 -5 -17 9 0 8 9 21
17 30 17 14 0 13 -6 -5 -40 -12 -21 -25 -37 -28 -35 -4 3 -10 -3 -13 -13 -2
-9 -8 -24 -12 -33 -4 -11 2 -25 17 -39 14 -13 17 -20 8 -18 -10 2 -15 -5 -15
-24 -1 -15 -4 -30 -8 -34 -8 -9 -9 -54 -1 -54 3 0 18 8 32 19 15 10 45 28 67
39 22 11 55 34 73 50 18 17 49 33 67 36 19 4 37 11 41 17 11 18 -25 99 -41 93
-8 -3 -14 -9 -13 -12 3 -27 -3 -34 -17 -22 -21 18 -19 67 3 73 9 3 -88 5 -216
6 l-233 1 2 -600z m79 305 c0 -8 -5 -17 -10 -20 -6 -4 -10 5 -10 20 0 15 4 24
10 20 6 -3 10 -12 10 -20z m-24 -50 c-22 -17 -46 -20 -46 -6 0 10 22 18 50 20
11 0 10 -4 -4 -14z m14 -30 c-14 -17 -30 -20 -30 -6 0 5 8 12 18 14 9 3 19 5
21 6 2 0 -2 -6 -9 -14z m-40 -15 c0 -5 -5 -10 -11 -10 -5 0 -7 5 -4 10 3 6 8
10 11 10 2 0 4 -4 4 -10z m17 -57 c-3 -10 -5 -2 -5 17 0 19 2 27 5 18 2 -10 2
-26 0 -35z m103 -117 c0 -3 -4 -8 -10 -11 -5 -3 -10 -1 -10 4 0 6 5 11 10 11
6 0 10 -2 10 -4z m-95 -72 c-13 -5 -7 -164 6 -164 5 0 9 -12 9 -26 0 -14 4
-23 9 -20 5 4 7 -3 4 -14 -3 -11 -13 -20 -23 -20 -10 0 -21 -6 -24 -12 -3 -7
-5 45 -4 117 1 137 2 145 21 144 7 0 8 -2 2 -5z m2 -326 c-2 -13 -4 -5 -4 17
-1 22 1 32 4 23 2 -10 2 -28 0 -40z m780 -13 c8 -9 14 -17 12 -19 -2 -1 -33 0
-69 3 l-65 6 25 18 c28 20 72 17 97 -8z m-796 -72 c-16 -36 -20 -27 -13 37 6
54 6 54 15 22 7 -23 6 -40 -2 -59z"/>
<path d="M650 970 c0 -36 15 -38 41 -7 25 31 24 37 -11 37 -27 0 -30 -3 -30
-30z"/>
<path d="M60 970 c0 -5 5 -10 10 -10 6 0 10 5 10 10 0 6 -4 10 -10 10 -5 0
-10 -4 -10 -10z"/>
<path d="M423 850 c-38 -23 -39 -27 -17 -58 33 -47 132 -15 117 38 -5 14 -15
27 -23 29 -8 2 -22 5 -30 7 -8 3 -30 -5 -47 -16z"/>
<path d="M760 805 c-40 -48 54 -112 101 -69 14 12 22 13 38 4 35 -18 22 3 -25
43 -48 40 -92 48 -114 22z"/>
<path d="M598 712 c-14 -2 -38 -14 -53 -28 -22 -20 -26 -31 -21 -55 8 -39 -16
-76 -55 -84 -18 -4 -27 -11 -23 -18 4 -7 -7 2 -24 18 -16 17 -28 33 -25 38 8
13 -14 7 -26 -7 -9 -10 -9 -16 -1 -21 6 -4 8 -16 4 -27 -4 -13 -2 -18 4 -14 6
3 22 -5 36 -19 14 -14 30 -25 36 -25 6 0 29 -11 51 -26 45 -28 132 -43 143
-25 4 6 18 11 31 11 28 0 75 20 75 32 0 4 -3 8 -7 8 -10 0 -10 131 0 147 11
17 -9 60 -35 74 -30 16 -77 25 -110 21z m49 -18 c-3 -3 -12 -4 -19 -1 -8 3 -5
6 6 6 11 1 17 -2 13 -5z"/>
<path d="M319 551 c9 -6 10 -11 2 -15 -6 -4 -11 -11 -11 -17 0 -15 26 -10 41
7 10 13 10 17 -2 25 -8 5 -21 9 -29 9 -12 0 -12 -2 -1 -9z"/>
<path d="M800 500 c0 -5 5 -10 10 -10 6 0 10 5 10 10 0 6 -4 10 -10 10 -5 0
-10 -4 -10 -10z"/>
</g>
</svg>
